<?xml version="1.0" standalone="no"?>
<!DOCTYPE svg PUBLIC "-//W3C//DTD SVG 20010904//EN"
 "http://www.w3.org/TR/2001/REC-SVG-20010904/DTD/svg10.dtd">
<svg version="1.0" xmlns="http://www.w3.org/2000/svg"
 width="5017.000000pt" height="1180.000000pt" viewBox="0 0 5017.000000 1180.000000"
 preserveAspectRatio="xMidYMid meet">

<g transform="translate(0.000000,1180.000000) scale(0.100000,-0.100000)"
fill="#643dd0" stroke="none">
<path d="M3430 11650 c-1427 -72 -2407 -315 -2896 -720 -179 -149 -326 -423
-384 -717 -28 -138 -30 -435 -5 -618 27 -202 93 -490 181 -794 84 -292 107
-425 124 -731 42 -756 108 394 -580 133 -132 234 -202 377 -260 472
-191 927 60 1083 597 70 242 131 698 196 1468 36 427 67 621 145 925 93 358
133 743 102 951 -30 189 -114 398 -224 552 -148 207 -443 436 -741 574 -115
53 -319 122 -482 163 -402 101 -787 147 -1625 196 -237 13 -1352 20 -1575 9z"/>
</g>
</svg>
